<svg width="622" height="710" viewBox="0 0 622 710" fill="none" xmlns="http://www.w3.org/2000/svg">
<path d="M298 1.31261C296.4 2.11261 294.8 3.11261 294.5 3.51261C294.2 3.91261 292.4 5.11261 290.5 6.11261C288.6 7.21261 284.5 9.31261 281.5 11.0126C278.5 12.6126 275.8 14.3126 275.5 14.7126C275.2 15.1126 274 15.7126 272.8 16.1126C271.5 16.5126 270.5 17.3126 270.5 17.8126C270.5 18.3126 269.8 18.7126 269 18.7126C268.2 18.7126 263.5 21.2126 258.6 24.2126C253.7 27.2126 249 29.7126 248.1 29.7126C247.2 29.7126 246.5 30.0126 246.5 30.5126C246.5 30.9126 244.8 32.1126 242.8 33.2126C240.7 34.3126 238.8 35.5126 238.5 35.8126C238.2 36.2126 235.1 38.0126 231.5 39.8126C224.8 43.3126 222.5 45.0126 222.5 46.4126C222.5 46.9126 224.2 48.1126 226.3 49.2126C229.5 50.9126 240.2 57.0126 244.5 59.7126C245.3 60.2126 247.8 61.6126 250 62.8126C252.2 63.9126 254.2 65.2126 254.5 65.6126C255.1 66.4126 261.9 69.7126 263 69.7126C263.3 69.7126 264.3 70.3126 265 70.9126C268.5 74.1126 269.5 74.7126 271 74.7126C271.8 74.7126 272.5 75.1126 272.5 75.5126C272.5 75.9126 275.5 77.8126 279.3 79.7126C283 81.6126 286.2 83.4126 286.5 83.7126C287.3 84.6126 296.7 90.1126 299.7 91.5126L302.5 92.6126L303 90.4126C303.3 89.2126 303.4 68.4126 303.3 44.3126L303 0.412608L302 0.0126085C301.5 -0.0873915 299.7 0.412608 298 1.31261Z" fill="#8364B4"/>
<path d="M329 8.41258C327.9 8.71258 326.8 9.21258 326.5 9.61258C326.2 9.91258 325.1 10.7126 324 11.3126C322.9 11.9126 321.2 13.9126 320.3 15.8126L318.6 19.2126L318.5 106.513V193.813L320 196.713C320.8 198.313 323 200.713 324.8 202.113L328.2 204.713H331.4C333.1 204.713 335.3 204.313 336.3 203.813C337.2 203.313 340.9 201.413 344.5 199.613C353.2 195.213 354.9 194.313 355.5 193.613C356.4 192.513 363.9 188.713 365.2 188.713C365.9 188.713 366.5 188.313 366.5 187.813C366.5 187.313 367.3 186.713 368.3 186.313C370 185.813 373.5 183.713 374.5 182.713C375.5 181.713 381.7 178.713 382.7 178.713C383.9 178.713 391.3 173.013 393.7 170.213L395.4 168.213L395.5 106.513V44.8126L391.8 41.2126C389.8 39.3126 387.6 37.7126 386.9 37.7126C386.2 37.7126 385.2 37.1126 384.8 36.4126C383.9 35.1126 382.7 34.3126 373.3 29.5126C369.8 27.7126 366.5 25.8126 365.9 25.2126C365.3 24.7126 362.2 22.8126 358.9 21.2126C355.7 19.5126 352.4 17.6126 351.7 16.9126C351 16.3126 349.7 15.7126 348.9 15.7126C348.1 15.7126 347.5 15.3126 347.5 14.8126C347.5 14.3126 346.7 13.7126 345.8 13.3126C344.8 13.0126 343.3 12.3126 342.5 11.8126C339.7 10.1126 333.7 7.71258 332.3 7.81258C331.6 7.91258 330.1 8.21258 329 8.41258ZM350.5 46.5126C350.5 46.9126 352.2 48.1126 354.3 49.2126C356.3 50.3126 358.2 51.4126 358.5 51.7126C358.8 52.0126 360.6 53.0126 362.6 54.0126C364.5 55.0126 366.9 57.1126 367.8 58.7126L369.5 61.5126V107.013V152.413L367.3 155.713C366 157.613 363.7 159.513 362.2 160.013C360.7 160.513 356.9 162.413 353.7 164.313C350.6 166.213 347.6 167.613 347 167.413L346 167.013L345.7 107.613C345.6 74.9126 345.7 47.6126 346 46.9126C346.5 45.6126 350.5 45.2126 350.5 46.5126Z" fill="#503C6F"/>
<path d="M199 57.5126C197.4 58.4126 195.8 59.5126 195.5 59.8126C195.2 60.2126 194 60.7126 192.8 61.1126C191.5 61.5126 190.5 62.2126 190.5 62.7126C190.5 63.1126 189.4 63.8126 188 64.1126C186.6 64.5126 185.5 65.2126 185.5 65.7126C185.5 66.3126 184.8 66.7126 184 66.7126C183.2 66.7126 182.5 67.1126 182.5 67.7126C182.5 68.2126 181.9 68.7126 181.2 68.7126C179.9 68.7126 172.4 72.5126 171.5 73.6126C170.7 74.6126 167.2 76.7126 165.3 77.3126C164.3 77.7126 163.5 78.3126 163.5 78.7126C163.5 79.1126 162.3 79.8126 160.8 80.2126C159.2 80.5126 156.7 81.8126 155 83.1126C153.4 84.3126 150.3 86.1126 148.3 87.2126C146.2 88.3126 144.5 89.5126 144.5 89.9126C144.5 90.4126 143.8 90.7126 143 90.7126C142.1 90.7126 138.6 92.5126 135.1 94.7126C131.6 96.9126 128.3 98.7126 127.7 98.7126C127.1 98.7126 126.5 99.0126 126.3 99.4126C126.2 99.9126 123.8 101.413 121 102.913L116 105.613L115.7 107.613L115.4 109.713H116.9C117.8 109.713 118.5 110.113 118.5 110.613C118.5 111.113 119.6 111.813 121 112.113C122.4 112.513 123.5 113.213 123.5 113.713C123.5 114.313 124.2 114.713 125 114.713C125.8 114.713 126.5 115.113 126.5 115.713C126.5 116.213 127.6 116.913 129 117.313C130.4 117.613 131.5 118.313 131.5 118.713C131.5 119.213 132.9 119.813 134.5 120.213C136.2 120.613 137.5 121.213 137.5 121.513C137.5 121.913 138.9 122.813 140.5 123.513C142.2 124.313 144.1 125.413 144.8 126.113C145.4 126.713 148 128.113 150.5 129.213C153 130.313 155.2 131.413 155.5 131.713C156.2 132.613 165.4 137.913 170 140.213C172.2 141.313 174.2 142.513 174.5 142.813C174.8 143.113 176.6 144.213 178.5 145.313C180.4 146.313 182.2 147.413 182.5 147.713C182.8 148.013 185.3 149.313 188 150.713C190.8 152.113 193.2 153.513 193.5 153.813C195.1 155.713 202.8 159.713 205 159.713H207.5L215.6 154.613C220.1 151.813 224.4 149.313 225.3 148.913C226.2 148.613 230.5 146.113 234.7 143.513C239 140.913 242.7 138.713 243 138.713C243.6 138.713 253.8 132.513 254.5 131.813C255.4 130.813 259.4 128.713 260.4 128.713C261 128.713 263.4 127.313 265.8 125.713C268.3 124.013 270.8 122.713 271.4 122.713C272 122.713 272.5 122.313 272.5 121.913C272.5 121.513 273.7 120.613 275.3 120.013C278.8 118.513 285.6 114.513 287.2 113.013C287.9 112.413 289.8 111.313 291.5 110.613C293.1 109.813 294.7 108.713 295 108.013L295.4 106.713L291.7 104.413C289.7 103.113 285.5 100.613 282.5 99.0126C272 93.1126 270.5 92.2126 270.5 91.4126C270.5 91.0126 269.8 90.7126 269 90.7126C268.1 90.7126 263.8 88.4126 259.4 85.7126C255 82.9126 250.2 80.4126 248.9 80.1126C247.6 79.8126 246.5 79.2126 246.5 78.8126C246.5 78.5126 244.8 77.3126 242.8 76.2126C240.7 75.1126 238.8 73.9126 238.5 73.6126C237.8 72.7126 230.2 68.7126 229.2 68.7126C228.8 68.7126 227.6 67.9126 226.5 66.9126C225.5 66.0126 222.5 64.1126 219.8 62.7126C217.2 61.3126 214.8 60.0126 214.5 59.7126C214.2 59.4126 212.6 58.4126 210.8 57.4126C206.9 55.3126 202.9 55.3126 199 57.5126Z" fill="#8364B4"/>
<path d="M409.3 58.5126C407.7 59.5126 406.5 61.0126 406.5 61.9126C406.5 62.8126 406.1 63.9126 405.5 64.2126L404.5 64.8126V112.913V161.113L405.8 164.613L407 168.213L421.7 183.213C429.8 191.413 436.8 198.513 437.2 198.913C437.7 199.313 441 202.613 444.6 206.113L451.3 212.613L455.4 213.813L459.5 215.013L463.5 213.813C465.7 213.213 467.5 212.213 467.5 211.713C467.5 211.113 468.2 210.713 469 210.713C469.8 210.713 470.5 210.013 470.5 209.213C470.5 208.413 471 207.713 471.5 207.713H472.5V147.713V87.7126H471.5C471 87.7126 470.5 87.1126 470.5 86.3126C470.5 85.5126 469.2 83.9126 467.6 82.8126L464.7 80.7126H459.3L454 80.8126L452.1 82.2126C451 83.0126 449.3 84.9126 448.3 86.4126L446.5 89.2126V128.913V168.713H445.7C445.2 168.713 441.6 165.313 437.7 161.213L430.5 153.613V109.613V65.6126L429.1 62.8126C428.3 61.3126 426.5 59.3126 425.1 58.3126L422.6 56.7126L417.3 56.8126L412 56.9126L409.3 58.5126Z" fill="#503C6F"/>
<path d="M491.8 100.813L488.6 101.713L486.3 105.013L484 108.213L483.7 160.613L483.4 212.913L480.7 215.613C479.2 217.013 475.1 219.713 471.5 221.513C464.3 225.113 461.3 226.913 460.5 227.813C460.2 228.213 458.9 228.813 457.5 229.213C456.2 229.613 454.5 230.613 453.7 231.313C453 232.113 451.7 232.713 450.9 232.713C450.1 232.713 449.5 233.113 449.5 233.713C449.5 234.213 449 234.713 448.4 234.713C447.8 234.713 446.7 235.413 445.9 236.213C445 237.013 443.5 237.713 442.4 237.713H440.5V225.813V213.813L439.5 213.213C439 212.913 438.5 211.913 438.5 211.113C438.5 209.613 436.2 207.013 432.5 204.413C427.8 201.113 420.1 202.913 416 208.313L414.6 210.213L414.5 239.313V268.313L417.8 271.513L421.1 274.713H426.3H431.5L435.4 272.213C437.6 270.913 440.5 269.513 441.9 269.113C443.3 268.813 444.5 268.213 444.5 267.813C444.5 267.213 447.8 265.213 455.6 261.213C456.6 260.713 457.5 259.913 457.5 259.513C457.5 259.013 458.2 258.713 459 258.713C459.8 258.713 463.2 256.913 466.4 254.713C469.6 252.513 472.8 250.713 473.4 250.713C474 250.713 478.5 248.213 483.4 245.213C488.3 242.213 492.8 239.713 493.4 239.713C494 239.713 494.5 239.313 494.5 238.813C494.5 238.313 495.6 237.613 497 237.313C498.4 236.913 499.5 236.213 499.5 235.713C499.5 235.113 500.1 234.713 500.8 234.713C502.6 234.713 507 229.713 508.1 226.613C508.5 225.313 508.8 205.113 508.6 181.713L508.4 139.213L509.7 137.413L511.1 135.513L522.5 141.413C528.8 144.613 534.2 147.513 534.5 147.813C534.8 148.213 536.1 148.813 537.4 149.213C538.8 149.613 541.3 150.813 542.9 151.813C544.6 152.813 548 154.613 550.5 155.913C553 157.213 555.2 158.413 555.5 158.813C555.8 159.113 558.2 160.113 561 161.213C563.7 162.213 566.6 163.713 567.3 164.413C568 165.113 569.3 165.713 570.1 165.713C570.9 165.713 571.5 166.113 571.5 166.713C571.5 167.213 572.2 167.713 573 167.713C573.8 167.713 574.5 168.413 574.5 169.213C574.5 170.013 573.9 170.713 573.1 170.713C571.4 170.713 559.2 176.913 558.7 177.913C558.5 178.413 557.8 178.713 557.1 178.713C556.4 178.713 554.5 179.313 552.9 180.113C551.3 180.913 548.8 181.913 547.3 182.213L544.5 182.913V175.913V168.813L543.5 168.213C543 167.913 542.5 166.813 542.5 165.913C542.5 163.713 538.4 160.313 533.7 158.813L529.8 157.513L524.2 160.213L518.5 162.813V164.713C518.5 165.713 518.1 166.913 517.5 167.213L516.5 167.813V188.413V208.913L518.5 211.713C521.3 215.613 526.6 218.713 530.4 218.713C533.4 218.713 546.6 213.013 547.3 211.513C547.5 211.013 548.3 210.713 549 210.713C550.6 210.713 557.7 207.613 558.5 206.513C558.8 206.213 560.3 205.513 561.8 205.213C563.3 204.813 564.5 204.213 564.5 203.813C564.5 203.413 566.2 202.413 568.3 201.613C570.3 200.913 577.2 197.613 583.5 194.513C589.8 191.313 595.7 188.713 596.6 188.713C597.6 188.713 598.5 188.413 598.7 187.913C599 187.113 611.6 180.713 612.9 180.713C614.3 180.713 616.2 178.113 617.4 174.413L618.7 170.713L618 166.613L617.3 162.613L615.2 160.613C614 159.513 611.1 157.613 608.8 156.513C606.4 155.313 604.5 154.013 604.5 153.613C604.5 153.213 603.3 152.613 601.8 152.213C600.3 151.913 598.8 151.213 598.5 150.913C597.7 149.813 591.4 146.713 590 146.713C589.3 146.713 588.5 146.313 588.3 145.913C588.2 145.413 582.6 142.413 576 139.013C569.4 135.713 563.1 132.613 562 132.013C560.9 131.413 557.1 129.413 553.5 127.613C544.9 123.313 543.1 122.313 542.5 121.613C542.2 121.313 540.7 120.713 539.2 120.313C537.6 119.913 534.6 118.513 532.4 117.213C530.3 115.813 528.1 114.713 527.6 114.713C527.1 114.713 526.5 114.413 526.3 113.913C525.9 112.913 513.3 106.713 511.8 106.713C511.1 106.713 510.5 106.213 510.5 105.713C510.5 105.113 509.9 104.713 509.1 104.713C508.3 104.713 507 104.013 506.2 103.213C505.4 102.413 502.7 101.313 500.3 100.813C495.4 99.6126 496 99.6126 491.8 100.813Z" fill="#503C6F"/>
<path d="M90 120.413C87.3 121.813 84.8 123.213 84.5 123.613C83.8 124.513 76.5 128.613 73.3 130.013C71.7 130.613 70.5 131.513 70.5 131.913C70.5 132.313 70 132.713 69.4 132.713C68.7 132.713 65.5 134.413 62.1 136.513C58.7 138.613 53.9 141.413 51.3 142.713C48.6 144.013 46.5 145.413 46.5 145.913C46.5 146.313 45.8 146.713 45 146.713C44.2 146.713 43.5 147.113 43.5 147.613C43.5 148.113 42.3 148.813 40.9 149.113C39.4 149.513 36.8 150.813 35.1 152.113C33.4 153.313 30.3 155.213 28.3 156.213C26.2 157.313 24.5 158.513 24.5 158.913C24.5 159.413 24 159.713 23.4 159.713C22.1 159.713 15.2 162.813 14.5 163.713C14.2 164.013 12.3 165.313 10.3 166.613C8.2 167.813 6.5 169.113 6.5 169.413C6.5 170.313 9.1 172.413 13.3 174.713C15.6 176.013 17.5 177.413 17.5 177.913C17.5 178.313 18.6 178.713 19.9 178.713C21.2 178.713 22.5 179.113 22.7 179.513C23.1 180.513 33.2 186.713 34.5 186.713C35.1 186.713 35.5 187.113 35.5 187.613C35.5 188.113 36.9 188.813 38.5 189.213C40.2 189.613 41.5 190.213 41.5 190.713C41.5 191.213 42.5 191.913 43.7 192.313C44.9 192.613 46.8 193.813 47.9 194.913C49 195.913 51 197.013 52.2 197.313C53.5 197.713 54.5 198.313 54.5 198.813C54.5 199.313 55 199.713 55.7 199.713C56.3 199.713 60 201.713 63.9 204.013C67.8 206.413 72.6 209.113 74.5 210.113C80.6 213.113 85.9 216.413 86.3 217.613C86.5 218.213 87.6 218.713 88.8 218.713C90 218.713 91.9 219.413 92.9 220.213C95.7 222.313 99.4 222.013 104 219.213C106.2 217.913 109.4 216.013 111.2 215.113C113 214.313 114.9 212.913 115.6 212.113C116.2 211.313 117.6 210.713 118.6 210.713C119.7 210.713 120.5 210.313 120.5 209.913C120.5 209.513 121.7 208.613 123.3 208.013C126.9 206.513 133.6 202.513 135.3 200.913C136 200.313 137.1 199.713 137.6 199.713C138.1 199.713 142.2 197.413 146.6 194.613C151.1 191.813 155.4 189.313 156.4 188.913C158 188.413 165.5 183.713 166.5 182.713C167.6 181.613 173.8 178.713 175.1 178.713C175.9 178.713 176.5 178.313 176.5 177.813C176.5 177.313 177.9 176.413 179.6 175.613C181.4 174.913 183.9 173.313 185.2 172.113L187.7 169.813L184.9 167.313C183.3 165.913 181.4 164.713 180.8 164.713C180.1 164.713 179.5 164.413 179.5 163.913C179.5 163.513 177.6 162.313 175.2 161.213C172.9 160.113 167.5 157.113 163.3 154.513C159 151.913 155.2 149.713 154.9 149.713C154.6 149.713 151 147.713 147.1 145.213C143.1 142.713 139.6 140.713 139.2 140.713C138.3 140.713 125 132.313 124.7 131.513C124.5 131.013 123.7 130.713 122.9 130.713C122.1 130.713 117.3 128.213 112.3 125.213C107.3 122.213 102.6 119.713 101.8 119.713C101.1 119.713 100.5 119.213 100.5 118.713C100.5 117.013 95.2 117.813 90 120.413Z" fill="#8364B4"/>
<path d="M295 126.713C291.7 128.913 288.4 130.613 287.8 130.613C287.1 130.713 286.5 131.113 286.5 131.713C286.5 132.213 286 132.713 285.4 132.713C284.7 132.713 281.9 134.113 279.1 135.813C276.3 137.613 271.5 140.313 268.5 142.013C265.5 143.613 262.8 145.213 262.5 145.613C262.2 145.913 260.2 147.113 258 148.213C255.8 149.313 250.6 152.213 246.5 154.713C242.4 157.213 237.2 160.113 235 161.213C232.8 162.313 230.8 163.413 230.5 163.713C230.2 164.113 228.3 165.313 226.3 166.613C224.2 167.813 222.5 169.013 222.5 169.313C222.5 170.313 226.1 173.713 227.2 173.713C227.9 173.713 228.5 174.113 228.5 174.713C228.5 175.213 229.6 175.913 231 176.313C232.4 176.613 233.5 177.313 233.5 177.813C233.5 178.313 234.2 178.713 235 178.713C235.9 178.713 239.2 180.413 242.3 182.413C245.4 184.513 249.8 187.013 252 188.113C254.1 189.113 259.4 192.113 263.7 194.813C268 197.513 271.8 199.713 272.1 199.713C272.4 199.713 276 201.713 279.9 204.213C283.9 206.713 287.7 208.713 288.3 208.713C289 208.713 289.5 209.113 289.5 209.713C289.5 210.213 290.2 210.713 291 210.713C291.8 210.713 294.5 212.113 297 213.913L301.5 217.113L302.5 216.113L303.5 215.113L303.3 169.213L303 123.413L302 123.113C301.5 123.013 298.3 124.613 295 126.713Z" fill="#8364B4"/>
<path d="M201.3 180.713C199.8 181.113 197.1 182.613 195.3 183.913C193.5 185.213 189.1 187.813 185.5 189.713C181.9 191.513 177.5 194.113 175.7 195.413C174 196.713 171 198.513 169.2 199.313C167.5 200.113 165.1 201.313 164 202.013C157.5 206.113 151.4 209.613 147.5 211.613C145 212.913 142.8 214.213 142.5 214.613C142.2 214.913 140.4 216.013 138.5 217.113C128.1 222.713 123.9 225.013 123.5 225.613C123.2 226.013 121.3 227.113 119.3 228.013C113.1 230.913 114.1 233.013 124.5 238.413C128.6 240.613 134.2 243.813 136.9 245.613C139.7 247.313 142.5 248.713 143.2 248.713C143.9 248.713 144.5 249.113 144.5 249.713C144.5 250.213 145 250.713 145.6 250.713C146.2 250.713 149.4 252.513 152.7 254.713C156 256.913 159.1 258.713 159.6 258.713C160.5 258.713 165.4 261.513 166.5 262.713C167 263.213 168.2 263.913 179.5 270.013C182.5 271.613 185.2 273.213 185.5 273.613C186.7 275.113 200.3 282.113 204 283.113L206 283.713L213 280.013C216.9 278.013 221 275.913 222.2 275.313C223.5 274.713 224.5 273.913 224.5 273.513C224.5 273.213 227.5 271.413 231.3 269.613C235 267.813 238.2 266.113 238.5 265.713C239.8 264.213 249.3 258.713 250.8 258.713C251.6 258.713 252.5 258.313 252.7 257.913C253.1 256.913 263.2 250.713 264.5 250.713C265.1 250.713 265.5 250.213 265.5 249.713C265.5 249.113 266.1 248.713 266.8 248.713C267.6 248.713 271 246.913 274.4 244.713C277.8 242.513 282 240.013 283.8 239.213C289.3 236.713 293.9 233.813 294.7 232.313L295.5 230.913L291.9 228.813C290 227.613 288 226.713 287.5 226.713C287.1 226.713 286.5 226.313 286.3 225.813C286 225.013 283 223.313 271.5 217.113C269.6 216.013 267.8 214.913 267.5 214.613C267.2 214.213 265 212.913 262.5 211.613C260 210.313 255.8 207.913 253 206.113C250.3 204.413 245.2 201.613 241.8 199.813C238.3 198.113 235.5 196.313 235.5 195.913C235.5 195.513 234.3 194.613 232.8 194.013C229 192.413 218.9 186.813 214 183.513C209.4 180.513 205.1 179.513 201.3 180.713Z" fill="#8364B4"/>
<path d="M391.5 184.413C390.1 184.713 388.8 185.213 388.5 185.613C388.2 186.013 385 187.813 381.3 189.713C377.5 191.613 374.5 193.413 374.5 193.713C374.5 194.113 372.8 195.213 370.8 196.313C368.7 197.313 366.4 198.813 365.7 199.413C365 200.113 363.7 200.713 362.9 200.713C362.1 200.713 361.5 201.013 361.5 201.513C361.5 201.913 360.1 202.813 358.5 203.513C356.8 204.313 354.9 205.413 354.2 206.013C353.6 206.713 351 208.213 348.5 209.513C343.3 212.213 340.2 214.013 339.5 214.813C339.2 215.113 336.3 216.913 333 218.713C326.2 222.513 322.5 225.813 320.1 230.413L318.5 233.613V278.413V323.213L320.6 326.613C321.7 328.413 323.5 330.113 324.6 330.413C325.6 330.713 326.5 331.313 326.5 331.813C326.5 332.213 328 332.913 329.9 333.213L333.3 333.913L337.2 332.213C341.9 330.113 346.8 327.513 347.5 326.813C348 326.213 349.1 325.613 360.5 319.413C363.5 317.813 366.2 316.213 366.5 315.813C367.2 315.013 374 311.113 379.5 308.513C382 307.313 384.5 305.813 385.2 305.213C385.8 304.513 388.9 302.713 392.2 301.113C395.4 299.513 398.6 297.613 399.3 297.013C400 296.313 401.1 295.713 401.7 295.713C402.3 295.713 404.3 294.113 406.1 292.113L409.5 288.613V284.413L409.4 280.213L407.1 276.413C404.4 272.013 400.7 269.713 396.4 269.713C393.1 269.713 393 269.813 382.4 276.113C378.2 278.613 374.3 280.713 373.7 280.713C373 280.713 372.5 281.013 372.5 281.513C372.5 281.913 371.1 282.813 369.5 283.513C367.8 284.313 365.9 285.413 365.2 286.013C364.2 287.013 361.3 288.613 352.4 293.213C351.4 293.713 350.5 294.513 350.5 294.913C350.5 295.413 349.4 295.713 348 295.713H345.5V290.913C345.5 288.313 346.1 285.513 346.8 284.713C347.5 283.913 349.8 282.313 352 281.213C354.2 280.113 358.5 277.613 361.5 275.713C366.4 272.713 369.4 270.913 376 267.313C377.1 266.713 380.6 264.513 383.8 262.413C386.9 260.413 390 258.713 390.6 258.713C391.6 258.713 399.6 253.413 402.1 251.213C404 249.413 405.5 245.913 405.5 243.113C405.5 239.413 402.1 232.513 399.4 230.813L397.2 229.513L391.7 229.613C388.6 229.613 385.9 230.013 385.6 230.513C385.3 231.013 384.3 231.713 383.5 232.113C381.3 233.113 378.3 235.013 375 237.313C373.3 238.513 370.9 239.813 369.6 240.213C368.2 240.613 366.2 241.813 365.1 242.913C364 243.913 362 245.013 360.8 245.313C359.5 245.713 358.5 246.213 358.5 246.613C358.5 247.513 348.2 252.713 346.6 252.713H345.5V247.913V243.013L347.3 241.613C348.2 240.813 350.7 239.213 352.8 238.213C354.8 237.113 356.5 236.013 356.5 235.713C356.5 235.413 358.2 234.313 360.3 233.213C362.3 232.113 364.6 230.613 365.3 230.013C366 229.313 367.3 228.713 368.1 228.713C368.9 228.713 369.5 228.313 369.5 227.813C369.5 227.313 370.6 226.613 372 226.313C373.4 225.913 374.5 225.213 374.5 224.713C374.5 224.113 375.2 223.713 376 223.713C376.8 223.713 377.5 223.313 377.5 222.713C377.5 222.213 378.6 221.513 380 221.113C381.4 220.813 382.5 220.113 382.5 219.613C382.5 219.113 383 218.713 383.6 218.713C385 218.713 402.5 208.313 404.6 206.213C406.6 204.213 407.6 198.913 406.8 193.913L406.2 190.213L403.2 187.413C401.5 185.913 399.7 184.713 399.1 184.713C398.5 184.713 397.1 184.513 396 184.313C394.9 184.113 392.9 184.113 391.5 184.413Z" fill="#503C6F"/>
<path d="M1.60002 188.613L0.400024 189.413L0.700024 238.313L1.00002 287.313L2.70002 289.013C3.60002 289.913 4.80002 290.713 5.40002 290.713C6.00002 290.713 6.50002 291.113 6.50002 291.513C6.50002 292.013 7.50002 292.913 8.80002 293.513C10 294.113 13.3 295.913 16 297.513C18.8 299.113 26 303.213 32 306.713C38.1 310.213 45.3 314.613 48.2 316.413C51.1 318.213 53.8 319.713 54.4 319.713C54.9 319.713 56 320.313 56.7 320.913C58.2 322.313 61.9 324.413 70 328.613C72.8 330.013 75.6 331.813 76.3 332.413C77 333.113 78.3 333.713 79.1 333.713C79.9 333.713 80.5 334.113 80.5 334.713C80.5 335.213 81.1 335.713 81.9 335.713C82.6 335.713 83.8 336.413 84.5 337.213C85.2 338.013 86.6 338.713 87.6 338.713H89.5V288.413V238.113L87.7 236.713C84.7 234.313 82.1 232.713 80.3 232.113C79.3 231.713 78.5 231.113 78.5 230.713C78.5 230.213 77.2 229.613 75.5 229.213C73.9 228.813 72.5 228.213 72.5 227.913C72.5 227.513 70.7 226.313 68.5 225.313C66.3 224.213 64.5 223.113 64.5 222.713C64.5 222.413 62.6 221.213 60.3 220.213C57.9 219.213 53.3 216.613 49.9 214.513C46.5 212.413 43.5 210.713 43.1 210.713C42.8 210.713 38.9 208.513 34.5 205.813C30.2 203.113 25.7 200.613 24.6 200.213C23.4 199.913 22.5 199.213 22.5 198.713C22.5 198.313 21.5 197.713 20.2 197.313C19 197.013 17 196.013 15.9 195.013C13.8 193.113 8.40002 190.013 4.90002 188.713C3.80002 188.213 2.30002 188.213 1.60002 188.613Z" fill="#8364B4"/>
<path d="M600.3 199.813L596.7 201.613L596 203.913C595.7 205.213 594.9 207.913 594.3 209.913L593.2 213.713L594.4 217.413L595.6 221.213L595.3 266.713L595 312.213L587.1 311.813L579.3 311.513L575.4 313.313C573.3 314.413 571.5 315.513 571.5 315.913C571.5 316.413 570.8 316.713 570 316.713H568.5V307.913C568.5 303.113 568.9 298.713 569.3 298.213C570.2 296.813 582.5 288.713 583.5 288.713C585.2 288.713 587.5 282.213 587.5 277.513V272.713L585 269.813C583.6 268.313 580.7 266.413 578.6 265.713L574.8 264.513L568.9 267.313C564 269.613 552.3 276.913 550.5 278.713C550.2 279.013 549.1 279.713 548.1 280.313C547 280.913 545.7 282.213 545.1 283.313C544.5 284.313 543.6 285.513 543 285.913L542 286.613L542.3 314.213L542.7 341.713L544.5 345.513C545.5 347.613 547.6 349.913 549.1 350.713C550.6 351.513 553.7 352.113 555.9 352.013L560.1 351.913L568.3 347.613C572.8 345.313 576.5 343.113 576.5 342.713C576.5 342.313 578.3 341.413 580.5 340.713L584.6 339.413L590.5 342.213C593.8 343.813 596.5 345.413 596.5 345.913C596.5 346.313 597.4 346.713 598.4 346.713C599.5 346.713 600.6 347.113 600.9 347.613C601.7 348.813 608.2 349.713 611.5 349.113C613 348.813 615.5 347.413 617.1 346.013L620 343.513V275.313V207.013L618.5 204.313C616.9 201.213 610.4 197.613 606.6 197.813C605.2 197.913 602.3 198.813 600.3 199.813Z" fill="#8364B4"/>
<path d="M559.5 221.913C556.5 223.613 553.8 225.313 553.5 225.613C553.2 225.913 550.1 227.713 546.5 229.513C542.9 231.313 538.7 233.713 537 234.813C535.4 235.813 532 237.713 529.5 238.813C527 240.013 524.8 241.313 524.5 241.613C523.8 242.513 516.4 246.713 513.3 248.013C511.7 248.613 510.5 249.513 510.5 249.913C510.5 250.313 509.7 250.713 508.8 250.713C507.9 250.713 506.4 251.313 505.6 252.113C504.7 252.813 500.2 255.413 495.5 257.813C490.8 260.213 486.4 262.813 485.7 263.413C485 264.113 483.7 264.713 482.9 264.713C482.1 264.713 481.5 265.013 481.5 265.413C481.5 265.913 479.6 267.113 477.2 268.213C474.9 269.213 470.5 271.713 467.5 273.613C464.5 275.513 460.5 278.013 458.6 279.013C456.7 280.013 454.5 281.513 453.8 282.313C451.6 284.413 450.4 289.813 451.1 293.913L451.7 297.713L455.3 300.713L459 303.713H463.2H467.4L474.8 299.813C478.9 297.613 484.1 294.713 486.4 293.313C488.6 291.913 490.8 290.713 491.2 290.713C491.7 290.713 495 288.913 498.7 286.813L505.4 282.913L505.9 286.613C506.2 288.613 506.4 308.913 506.4 331.713L506.3 373.213L507.3 375.913C507.9 377.313 509.9 379.713 511.8 381.113L515.2 383.713H519.4C524.1 383.713 527 382.513 530 379.313L532 377.213L532.3 323.813L532.6 270.413L534.4 267.813C535.5 266.313 538.4 264.113 540.9 262.913C543.4 261.613 545.7 260.213 546 259.613C546.4 259.113 547.5 258.713 548.6 258.713C549.6 258.713 550.5 258.213 550.5 257.713C550.5 257.113 551.1 256.713 551.9 256.713C552.7 256.713 554 256.113 554.7 255.313C555.5 254.613 557.1 253.613 558.3 253.313C559.5 252.913 560.5 252.113 560.5 251.613C560.5 251.113 561.4 250.713 562.4 250.713C563.5 250.713 564.6 250.313 564.9 249.813C565.2 249.313 567.4 247.913 569.7 246.713C572.1 245.513 574.2 244.213 574.5 243.813C574.8 243.513 576.6 242.313 578.5 241.313C580.5 240.313 582.6 238.313 583.3 236.913C583.9 235.513 584.5 232.113 584.5 229.513V224.713H583.5C583 224.713 582.5 224.113 582.5 223.413C582.5 222.713 581.2 221.413 579.6 220.413L576.7 218.713H570.8H565L559.5 221.913Z" fill="#503C6F"/>
<path d="M296.1 249.013C293.9 250.213 291.5 251.813 290.7 252.413C290 253.113 288.8 253.713 288 253.713C287.3 253.713 286.5 254.113 286.3 254.613C286 255.313 280.8 258.413 271.5 263.313C269.6 264.413 267.9 265.513 267.7 265.913C267.5 266.413 266.7 266.713 265.9 266.713C265.1 266.713 264.5 267.113 264.5 267.713C264.5 268.213 263.3 269.013 261.8 269.313C260.2 269.713 257.7 270.913 256 272.113C252.7 274.413 249.1 276.613 243 279.813C240.8 281.013 235.7 283.913 231.8 286.313C227.8 288.713 224.1 290.713 223.6 290.713C222.4 290.713 221.5 293.213 222.3 294.313C223.2 295.413 225.7 296.913 231.5 299.813C234 301.113 236.6 302.713 237.3 303.413C238 304.113 239.3 304.713 240.1 304.713C240.9 304.713 241.5 305.013 241.5 305.413C241.5 305.913 243.4 307.113 245.8 308.113C248.1 309.213 251.4 311.113 253.1 312.413C254.9 313.613 259.6 316.413 263.6 318.513C267.7 320.713 274 324.313 277.7 326.613C281.4 328.813 284.9 330.713 285.4 330.713C285.9 330.713 286.5 331.013 286.7 331.413C286.9 331.913 288.8 333.113 290.9 334.213C293.1 335.313 295.4 336.713 296 337.413C296.7 338.013 298.5 338.713 300.1 338.913L303 339.213V293.213V247.213L301.5 247.013C300.7 246.913 298.2 247.813 296.1 249.013Z" fill="#8364B4"/>
<path d="M107.7 298.913L108 349.113L113.5 352.913C116.5 355.113 121 357.713 123.5 358.913C126 360.013 128.2 361.213 128.5 361.613C128.8 361.913 130.7 363.113 132.8 364.213C134.8 365.313 136.5 366.513 136.5 366.813C136.5 367.213 137.7 367.813 139.2 368.213C140.7 368.513 142.2 369.213 142.5 369.513C143.3 370.513 146.8 372.713 148.8 373.313C149.7 373.713 150.5 374.313 150.5 374.813C150.5 375.313 151.1 375.713 151.9 375.713C152.7 375.713 154 376.313 154.7 376.913C155.4 377.613 158 379.213 160.5 380.413C165.1 382.713 168.6 384.813 169.5 385.713C169.8 386.013 171.8 387.113 174 388.213C176.2 389.313 181.5 392.313 185.7 394.913C190 397.613 193.9 399.713 194.4 399.713C194.9 399.713 195.6 399.013 195.9 398.113C196.2 397.213 196.5 375.213 196.5 349.213V301.813L195.5 299.213C194.9 297.713 193.6 296.313 192.5 296.013C191.4 295.713 190.5 295.113 190.5 294.613C190.5 294.113 189.9 293.713 189.1 293.713C188.3 293.713 187 293.113 186.3 292.413C185.6 291.813 183 290.213 180.5 289.013C175.8 286.613 172.3 284.613 171.5 283.613C171.2 283.313 169.2 282.313 167 281.213C164.8 280.213 160.5 277.813 157.5 275.813C154.5 273.913 149.8 271.113 147 269.713C138.8 265.413 135.2 263.313 133.7 261.913C133 261.313 131.9 260.713 131.4 260.713C130.9 260.713 127 258.513 122.7 255.913C114.9 251.113 110.2 248.713 108.4 248.713H107.5L107.7 298.913Z" fill="#8364B4"/>
<path d="M428 298.013C425.3 299.613 423.2 302.513 421.8 306.713L420.5 310.213V354.913V399.613L421.5 400.213C422.1 400.513 422.5 401.613 422.5 402.613C422.5 403.513 423.8 405.813 425.3 407.513L428.2 410.713H433.7H439.2L442.6 409.013C444.5 408.113 446.2 407.113 446.5 406.813C446.8 406.513 448.7 405.313 450.8 404.313C452.8 403.213 454.5 402.013 454.5 401.513C454.5 401.113 455 400.713 455.6 400.713C457.1 400.713 465.3 396.913 465.7 396.013C465.8 395.513 468.9 393.713 472.5 391.813C476.1 390.013 482.8 386.213 487.5 383.513L496.1 378.513L497.8 375.513L499.5 372.513V346.613V320.613L497.8 317.913C495 313.613 493.6 312.513 489.7 311.613L486 310.813L482.3 311.813C480.2 312.313 478.5 313.213 478.5 313.713C478.5 314.313 477.8 314.713 477 314.713C476.2 314.713 475.5 315.113 475.5 315.713C475.5 316.213 474.4 316.913 473 317.313C471.6 317.613 470.5 318.313 470.5 318.713C470.5 319.113 469.5 319.713 468.2 320.113C467 320.413 465 321.413 463.9 322.413C462.8 323.413 461 324.713 459.9 325.313C458.9 325.913 457.6 327.313 457 328.513C456.5 329.713 455.7 330.713 455.3 330.713C453.9 330.713 454.5 338.313 456.1 341.513C456.9 343.213 458.8 345.613 460.2 346.713L462.8 348.713H468.1H473.4L474.1 352.113L474.7 355.613L473.6 358.913L472.4 362.213L465.4 366.413C461.6 368.813 458 370.713 457.5 370.713C456.9 370.713 454.8 371.813 452.7 373.113L449 375.413L447.7 374.113L446.5 372.813V338.013L446.4 303.213L444.6 300.913C443.5 299.713 442 298.713 441.1 298.713C440.3 298.713 439.3 298.213 439 297.713C438.2 296.313 430.5 296.513 428 298.013Z" fill="#8364B4"/>
<path d="M0.3 358.513L0 407.213L0.9 410.213C2 413.613 3.2 414.613 9.5 417.813C12 419.113 17 422.013 20.7 424.413C24.4 426.713 28.6 428.913 30 429.313C31.4 429.613 32.5 430.313 32.5 430.713C32.5 431.113 33.3 431.713 34.3 432.113C36.2 432.713 39.7 434.813 40.5 435.813C40.8 436.213 43.9 438.013 47.5 439.813C51.1 441.713 54.2 443.513 54.5 443.813C54.8 444.113 58 446.013 61.7 448.013C71.5 453.313 72.9 454.113 73.5 454.913C74.3 455.913 86.2 461.713 87.4 461.713H88.5V411.913V362.113L86.2 360.013C84.9 358.913 82.3 357.213 80.4 356.113C78.5 355.113 76.8 353.913 76.5 353.613C75.6 352.513 68.1 348.713 66.8 348.713C66.1 348.713 65.5 348.213 65.5 347.713C65.5 347.113 64.8 346.713 64 346.713C63.2 346.713 62.5 346.313 62.5 345.813C62.5 345.313 61.5 344.513 60.3 344.113C59 343.713 57.8 343.213 57.5 342.813C57.2 342.513 55.2 341.313 53 340.213C50.8 339.113 47.2 337.013 45.1 335.513C43 333.913 40.6 332.713 39.9 332.713C39.2 332.713 38.5 332.413 38.3 331.913C38.2 331.513 35.1 329.613 31.5 327.813C27.9 325.913 24.8 324.013 24.5 323.613C24.2 323.113 22.3 322.113 20.4 321.313C18.4 320.513 13.2 317.513 8.7 314.813L0.6 309.713L0.3 358.513Z" fill="#8364B4"/>
<path d="M215.2 312.413C214.8 312.713 214.5 334.813 214.5 361.413V409.813L216 412.713L217.5 415.713L220 416.313C221.4 416.613 222.5 417.313 222.5 417.813C222.5 418.313 222.9 418.713 223.5 418.713C224 418.713 228.6 421.213 233.7 424.213C238.8 427.213 243.4 429.713 243.9 429.713C244.4 429.713 246.3 430.813 248.1 432.213C249.9 433.613 251.7 434.713 252 434.713C252.3 434.713 254.1 435.813 255.8 437.113C257.6 438.413 260.2 439.713 261.8 440.113C263.3 440.413 264.5 441.213 264.5 441.713C264.5 442.313 265.1 442.713 265.9 442.713C266.7 442.713 267.5 443.013 267.7 443.413C267.9 443.913 269.6 445.013 271.5 446.113C280.8 451.013 286 454.113 286.3 454.813C286.5 455.313 287.3 455.713 288 455.713C288.8 455.713 290 456.313 290.7 456.913C291.4 457.613 294.2 459.313 296.9 460.613L301.7 463.013L302.6 461.613L303.5 460.213V413.613C303.5 387.913 303.2 365.613 302.9 363.913L302.3 360.813L300.1 360.113C299 359.713 297.8 359.213 297.5 358.813C296.7 357.813 293.1 355.713 291.3 355.113C290.3 354.713 289.5 354.113 289.5 353.613C289.5 353.113 288.9 352.713 288.1 352.713C287.4 352.713 286.2 352.113 285.6 351.313C284.9 350.513 283 349.513 281.4 349.213C279.8 348.813 278.5 348.113 278.5 347.613C278.5 347.113 277.8 346.713 277 346.713C276.2 346.713 275.5 346.313 275.5 345.713C275.5 345.213 274.4 344.513 273 344.113C271.6 343.813 270.5 343.213 270.5 342.813C270.5 342.413 269.3 341.613 267.8 341.013C264.1 339.413 257.8 335.813 253.8 332.913C252.1 331.713 250.2 330.713 249.7 330.713C249.1 330.713 245.8 328.913 242.4 326.713C238.9 324.513 234.2 321.813 231.9 320.713C229.7 319.613 226.8 318.013 225.4 317.013C222.8 315.113 217 311.713 216.3 311.713C216 311.713 215.5 312.013 215.2 312.413Z" fill="#8364B4"/>
<path d="M395.5 318.713C395.5 319.213 393.9 319.913 392 320.313C390.1 320.613 388.5 321.313 388.5 321.813C388.5 322.313 387.9 322.713 387.1 322.713C386.4 322.713 385.2 323.313 384.6 324.113C384 324.813 380.7 326.913 377.2 328.613C370.5 332.013 367.3 333.913 366.5 334.813C366.2 335.113 364.4 336.213 362.5 337.313C358 339.813 357.2 340.613 355.2 344.613L353.5 348.013V356.713V365.413L355.1 368.513C355.9 370.213 357.9 372.613 359.5 373.713L362.3 375.713H366.9H371.5L375.5 371.713L379.5 367.713V364.313V360.913L382.1 357.713L384.8 354.613L385.6 355.913L386.5 357.213V412.913V468.613L385.5 469.213L384.5 469.813V467.913C384.5 466.913 383.4 463.713 382 460.913C380.6 458.013 379.5 455.313 379.5 454.713C379.5 454.113 379.1 452.913 378.6 451.913C376.4 447.913 374.5 443.313 374.5 442.113C374.5 441.413 373.9 439.313 373.1 437.513C372.3 435.713 370.9 432.413 370 430.213C369.1 428.013 368 425.413 367.5 424.513C366.9 423.513 366.5 422.113 366.5 421.313C366.5 420.613 365.8 418.613 365 417.113C364.2 415.513 363.5 413.413 363.5 412.413C363.5 411.513 363.1 410.713 362.5 410.713C362 410.713 361.5 410.013 361.5 409.113C361.5 408.313 360.4 405.113 359 402.213C357.7 399.213 356.3 395.513 355.9 394.013C355.3 391.013 355.1 390.513 350.6 380.413C348.9 376.613 347.5 372.913 347.5 372.213C347.5 371.413 347.1 370.613 346.6 370.313C346.2 370.013 345.5 368.413 345.1 366.713C344.8 365.013 343.1 362.113 341.3 360.413L338.2 357.213H332.6H327L324.3 359.213C322.9 360.313 321 362.713 320.1 364.513L318.5 367.813V470.513V573.213L320.5 576.513C322.8 580.213 328 583.713 331.3 583.713C332.6 583.713 336 582.613 338.9 581.213L344.2 578.713L344.9 574.913C345.2 572.913 345.5 542.713 345.5 507.913V444.713H346.4C346.9 444.713 347.6 446.013 348 447.713C348.4 449.313 349.1 450.713 349.6 450.713C350.1 450.713 350.5 451.313 350.5 452.013C350.5 452.713 351.8 456.413 353.5 460.213C355.1 464.113 356.5 468.213 356.5 469.413C356.5 470.713 357 471.713 357.5 471.713C358.1 471.713 358.5 472.813 358.5 474.113C358.5 475.513 358.9 476.813 359.4 477.113C359.8 477.413 361.3 480.513 362.5 483.913C363.8 487.413 365.2 490.613 365.7 491.113C366.1 491.713 366.5 492.813 366.5 493.613C366.5 495.513 372.8 511.113 373.8 511.513C374.2 511.713 374.5 512.713 374.5 513.813C374.5 515.513 376.1 520.513 378.5 526.213C381.2 532.713 382.9 536.613 384.1 539.413C384.9 541.113 385.5 543.413 385.5 544.613C385.5 545.813 385.9 546.713 386.4 546.713C386.9 546.713 387.6 547.713 387.9 548.913C388.2 550.213 390.2 552.413 392.4 553.913L396.3 556.713H399.9C403.8 556.713 406.5 555.413 409.9 552.213L412 550.213V437.113V324.113L410.5 322.613C409.7 321.813 407.8 320.413 406.3 319.413L403.6 317.713H399.5C397.3 317.713 395.5 318.113 395.5 318.713Z" fill="#503C6F"/>
<path d="M578 353.213C576.4 354.113 574.8 355.113 574.5 355.513C574.2 355.913 571.8 357.313 569 358.713C566.3 360.113 563.9 361.513 563.7 361.913C563.5 362.413 562.9 362.713 562.3 362.713C561.7 362.713 558.4 364.513 554.9 366.713C551.4 368.913 548.1 370.713 547.5 370.713C546.5 370.713 544.6 372.113 538.3 377.613C536.2 379.413 534.5 381.313 534.5 381.813C534.5 382.313 532.7 385.613 530.5 389.213C528.3 392.813 526.5 396.213 526.5 396.713C526.5 397.313 525.5 399.413 524.2 401.513C522.9 403.513 520.6 407.813 519.2 410.913L516.5 416.613V435.113V453.613L517.5 454.213C518.1 454.513 518.5 455.613 518.5 456.513V458.213L525.4 462.413C529.2 464.813 532.8 466.713 533.4 466.713C534 466.713 534.5 467.113 534.5 467.613C534.5 468.113 535.5 468.913 536.8 469.313C538 469.713 541.7 471.713 545.1 473.813C548.5 476.013 551.7 477.713 552.4 477.713C553 477.713 553.5 478.113 553.5 478.713V479.713H558.9H564.3L565.5 478.213C566.2 477.413 567.4 476.713 568.1 476.713C568.9 476.713 569.5 476.213 569.5 475.713C569.5 475.113 570 474.713 570.6 474.713C571.2 474.713 573.2 473.513 575 472.113C576.9 470.713 580.2 469.313 582.3 469.013L586.2 468.513L589.6 470.113C591.5 471.013 593.6 472.913 594.3 474.413L595.5 477.113V497.013V516.813L594.5 518.813C593.4 520.713 582.1 528.713 580.4 528.713C579.9 528.713 579.5 529.113 579.5 529.713C579.5 530.213 578.6 530.713 577.5 530.713C576.5 530.713 575.2 531.313 574.8 531.913C574.4 532.613 572.4 534.113 570.5 535.113C568.6 536.213 566.8 537.313 566.5 537.613C565.1 539.213 559.4 541.713 557 541.713C554.6 541.713 549.6 539.513 538.5 533.613C536 532.213 532.1 530.513 529.7 529.813L525.5 528.413L523 529.513C521.6 530.213 519.5 530.713 518.5 530.713C517.4 530.713 516.5 531.213 516.5 531.713C516.5 532.313 515.5 533.213 514.3 533.713C511.9 534.713 508.4 536.813 507.5 537.713C506.7 538.513 503.5 540.413 498.8 542.813C496.4 544.113 494.5 545.413 494.5 545.813C494.5 546.113 493.7 546.713 492.8 547.113C488.9 548.413 485.8 550.913 483 555.213L481 558.213L480.7 571.713C480.5 579.113 480 586.113 479.4 587.213C478.9 588.313 476.6 590.113 474.5 591.113C472.3 592.213 470.5 593.413 470.5 593.913C470.5 594.313 469.8 594.713 468.9 594.713C468.1 594.713 465.9 595.813 464.2 597.113C462.4 598.413 459.9 599.813 458.5 600.213C457.1 600.613 454.8 601.813 453.3 602.813C451.9 603.913 450.2 604.713 449.6 604.713H448.5V574.413C448.5 557.813 448.9 543.713 449.3 543.213C450.3 541.713 460 535.713 461.3 535.713C462 535.713 462.5 535.313 462.5 534.913C462.5 534.413 464.6 533.013 467.3 531.713C469.9 530.413 474.9 527.513 478.5 525.213C482.1 523.013 487 520.113 489.5 518.813C492 517.513 495.2 515.113 496.8 513.413L499.5 510.313V505.713V501.113L497.8 498.713C495.1 494.713 492.5 492.813 489 492.113L485.7 491.513L482.1 492.813C480.1 493.513 478.5 494.513 478.5 494.913C478.5 495.313 477.9 495.713 477.1 495.713C476.3 495.713 475 496.313 474.3 496.913C473.6 497.613 470.8 499.313 468.1 500.713C460.2 504.713 459.5 505.113 459.5 505.913C459.5 506.413 458.9 506.713 458.1 506.713C457.4 506.713 456.2 507.413 455.5 508.213C454.8 509.013 453 509.713 451.4 509.713H448.5V479.313V448.913L451.7 446.213C453.5 444.713 457.4 442.313 460.5 440.813C463.5 439.313 469.4 436.013 473.5 433.413C477.6 430.813 481.3 428.713 481.6 428.713C482 428.713 486 426.413 490.4 423.713C494.8 420.913 499 418.713 499.6 418.713C501 418.713 509.4 412.913 511.8 410.213L513.7 408.213L513.3 402.013L512.9 395.813L509.5 392.813L506 389.713H500.3C497.1 389.713 494.5 390.113 494.5 390.613C494.5 391.113 493.4 391.813 492 392.113C490.6 392.513 489.5 393.213 489.5 393.713C489.5 394.313 488.8 394.713 488 394.713C487.2 394.713 486.5 395.113 486.5 395.713C486.5 396.213 485.4 396.913 484 397.313C482.6 397.613 481.5 398.313 481.5 398.713C481.5 399.213 480.2 399.813 478.5 400.213C476.9 400.613 475.5 401.313 475.5 401.813C475.5 402.313 475.1 402.713 474.5 402.713C474 402.713 470.6 404.513 467 406.713C463.4 408.913 460 410.713 459.4 410.713C458.8 410.713 456.9 411.713 455.2 413.013C451 415.913 448.9 417.213 443.5 419.913C441 421.213 438.9 422.513 438.7 422.913C438.5 423.413 437.7 423.713 437 423.713C436.2 423.713 435 424.313 434.3 425.013C433.6 425.613 431.3 427.113 429.2 428.213C427 429.313 424.6 431.513 423.7 433.213L422 436.213V534.713V633.213L423.9 636.313L425.8 639.513L429.6 640.713L433.4 642.013L437 641.413C440.3 640.913 443 639.713 451 635.313C452.1 634.713 454.4 633.213 456.1 632.013C457.8 630.813 460.3 629.513 461.8 629.213C463.3 628.813 464.5 628.113 464.5 627.613C464.5 627.113 464.9 626.713 465.5 626.713C466 626.713 469.3 625.013 472.7 622.913C476.2 620.913 480.7 618.313 482.8 617.213C484.8 616.113 486.5 614.913 486.5 614.513C486.5 614.013 487.1 613.713 487.9 613.713C488.7 613.713 490 613.113 490.7 612.413C491.4 611.813 493.8 610.313 496 609.213C498.2 608.113 501.1 606.213 502.5 605.013L504.9 602.713L505.7 594.213C506.1 589.513 506.8 581.913 507.3 577.413L508 569.013L509.6 567.513C510.4 566.713 512.1 565.613 513.3 565.313C514.5 564.913 515.5 564.113 515.5 563.613C515.5 563.113 516.2 562.713 517 562.713C517.8 562.713 518.5 562.213 518.5 561.713C518.5 561.113 519 560.713 519.6 560.713C520.2 560.713 522.2 560.013 524 559.213L527.2 557.613L534.6 561.513C538.7 563.713 544 566.613 546.5 568.113L551 570.713H557.6H564.1L569.1 567.613C571.8 565.913 574.2 564.213 574.5 563.813C575.2 563.013 578.1 561.213 583.3 558.713C585.6 557.513 587.5 556.113 587.5 555.613C587.5 555.113 588.2 554.713 589 554.713C589.8 554.713 590.5 554.313 590.5 553.713C590.5 553.213 591.6 552.513 593 552.113C594.4 551.813 595.5 551.113 595.5 550.713C595.5 550.213 596.5 549.513 597.8 549.113C599 548.813 602.1 547.013 604.6 545.213C607.2 543.413 610.7 541.113 612.4 540.213C616.8 538.013 619 535.613 620.3 531.713L621.5 528.413V496.613V464.813L620.4 462.113C619.2 458.713 611.9 451.813 608.8 451.113C607.5 450.713 606.5 450.213 606.5 449.813C606.5 449.513 604.8 448.313 602.8 447.213C600.7 446.113 597.6 444.313 596 443.013C594.3 441.813 591 440.413 588.5 439.813L584.1 438.813L579.3 439.813C576.7 440.413 574.5 441.213 574.5 441.713C574.5 442.113 573.7 442.713 572.8 443.113C570.7 443.713 567.7 445.613 565.7 447.413C565 448.113 563.7 448.713 562.9 448.713C562.1 448.713 561.5 449.113 561.5 449.713C561.5 451.513 557.5 450.813 553.5 448.213C551.3 446.813 549.2 445.713 548.7 445.713C548.2 445.713 547 444.813 546.1 443.813L544.3 441.913L544.7 429.513L545 417.213L548.7 411.513C550.7 408.413 553.4 403.913 554.6 401.513C557.2 396.513 559.7 394.113 566.2 390.713C568.8 389.313 573.3 386.713 576.2 384.913C579.1 383.213 582.3 381.713 583.5 381.713C585.9 381.713 589 383.313 592.8 386.613L595.5 389.113V393.013V397.013L593.3 398.813C592.2 399.913 590.9 400.713 590.5 400.713C589 400.713 580.7 409.313 579 412.613L577.3 416.013L578.5 419.813C579.2 421.913 581.2 424.913 582.9 426.413L586 429.213H591.9H597.8L598.3 427.913C598.5 427.313 599.2 426.713 599.9 426.713C600.6 426.713 602.4 425.313 604 423.713C605.6 422.013 607.5 420.713 608.2 420.713C608.9 420.713 609.5 420.213 609.5 419.713C609.5 419.113 610.1 418.713 610.9 418.713C612.8 418.713 618.4 412.213 620.1 408.113L621.5 404.813V391.713V378.613L620 375.113C618.2 370.913 617.5 370.113 610.5 365.713C607.5 363.813 604.8 362.013 604.5 361.613C604.2 361.313 602.9 360.613 601.5 360.213C600.1 359.813 598.8 359.113 598.5 358.813C598.2 358.513 596 356.913 593.6 355.313L589.1 352.413L585.1 352.013L581 351.613L578 353.213Z" fill="#503C6F"/>
<path d="M107.5 423.613V474.713H109C109.8 474.713 110.5 475.113 110.5 475.713C110.5 476.213 111.6 476.913 113 477.313C114.4 477.613 115.5 478.313 115.5 478.713C115.5 479.213 116.9 479.813 118.5 480.213C120.2 480.613 121.5 481.313 121.5 481.813C121.5 482.313 122 482.713 122.6 482.713C123.2 482.713 125.1 483.813 126.8 485.013C128.6 486.313 132 488.413 134.5 489.713C141.5 493.313 142.8 494.013 146.2 496.413C147.9 497.713 149.8 498.713 150.4 498.713C151 498.713 155.5 501.113 160.3 504.013C165.1 506.913 170.6 510.113 172.5 511.113C174.4 512.213 176.2 513.313 176.5 513.613C177.3 514.613 184.8 518.713 187.8 519.813C189.3 520.413 190.5 521.313 190.5 521.813C190.5 522.313 191.6 522.713 193 522.713H195.5V472.413V422.113L191.3 419.813C186.2 417.213 183.5 415.613 182 414.213C181.3 413.613 178.2 411.813 174.9 410.213C171.7 408.513 168.8 406.913 168.5 406.613C167.9 405.913 148.4 394.713 147.8 394.713C147.6 394.713 145.9 393.613 144.1 392.213C142.3 390.813 140.3 389.713 139.7 389.713C139 389.713 135.7 388.013 132.3 385.913C128.8 383.813 123.3 380.513 120 378.713C116.7 376.913 113.8 375.113 113.5 374.613C113.2 374.213 111.7 373.513 110.2 373.213L107.5 372.513V423.613Z" fill="#8364B4"/>
<path d="M0.5 485.013V535.413L2.3 537.013C3.3 538.013 4.5 538.713 4.8 538.713C5.5 538.713 15.7 544.813 16.5 545.713C16.8 546.013 19.9 547.713 23.5 549.613C27.1 551.413 30.2 553.213 30.5 553.613C30.8 553.913 32.7 555.113 34.8 556.213C36.8 557.313 38.5 558.513 38.5 558.913C38.5 559.413 39.2 559.713 40 559.713C40.9 559.713 45.7 562.213 50.7 565.213C55.7 568.213 60.4 570.713 61.1 570.713C61.8 570.713 62.5 571.113 62.7 571.513C63 572.413 71.1 577.313 77 580.213C79.2 581.313 81.2 582.513 81.5 582.813C81.8 583.213 83 583.713 84.3 584.113C85.5 584.513 86.5 585.313 86.5 585.813C86.5 586.313 87 586.713 87.5 586.713H88.5V536.213V485.613L86.1 483.213C84.8 481.913 82.5 480.513 81.1 480.113C79.7 479.813 78.5 479.113 78.5 478.713C78.5 478.313 77.7 477.713 76.8 477.313C74.7 476.713 71.7 474.813 69.7 472.913C69 472.313 67.7 471.713 66.9 471.713C66.1 471.713 65.5 471.313 65.5 470.813C65.5 470.313 64.2 469.613 62.5 469.213C60.9 468.813 59.5 468.213 59.5 467.713C59.5 467.313 58.7 466.713 57.8 466.313C56 465.713 52.4 463.613 51.5 462.613C51.2 462.313 49 461.013 46.5 459.713C39.2 455.913 38.1 455.313 34.8 452.913C33.1 451.713 31.2 450.713 30.6 450.713C30 450.713 25.5 448.313 20.7 445.413C15.9 442.513 10.3 439.213 8.3 438.213C6.2 437.113 4.5 435.913 4.5 435.513C4.5 435.013 3.6 434.713 2.5 434.713H0.5V485.013Z" fill="#8364B4"/>
<path d="M214.5 483.813V532.913L216.2 535.813C217.2 537.413 218.5 538.713 219.2 538.713C219.9 538.713 223.4 540.513 227 542.713C230.6 544.913 234 546.713 234.5 546.713C235.1 546.713 235.5 547.113 235.5 547.713C235.5 548.213 236 548.713 236.7 548.713C237.3 548.713 241.1 550.713 245.1 553.213C249 555.713 252.8 557.713 253.4 557.713C254 557.713 254.5 558.113 254.5 558.713C254.5 559.213 255 559.713 255.7 559.713C256.3 559.713 260.1 561.713 264.1 564.213C268 566.713 271.5 568.713 271.8 568.713C272.8 568.713 286 577.113 286.3 577.913C286.5 578.413 287.4 578.713 288.3 578.813C289.3 578.813 291.4 579.713 293 580.713C299.2 584.613 301.6 585.813 302.5 585.213L303.5 584.613V536.813C303.5 510.513 303.2 487.613 302.9 486.013L302.3 483.113L298.3 481.313C296.1 480.413 291.7 477.913 288.6 475.913C285.5 473.913 280.3 470.913 277 469.313C273.7 467.613 270.4 465.713 269.7 465.013C269 464.313 267.7 463.713 266.9 463.713C266.1 463.713 265.5 463.313 265.5 462.913C265.5 462.413 263.6 461.213 261.3 460.213C258.9 459.213 255.2 457.113 253.1 455.513C251 454.013 248.6 452.713 247.8 452.713C247.1 452.713 246.5 452.213 246.5 451.713C246.5 451.113 246 450.713 245.5 450.713C244.9 450.713 241.1 448.713 237 446.213C232.9 443.713 228.8 441.413 227.8 441.013C226.8 440.613 223.9 439.113 221.4 437.513C218.9 436.013 216.3 434.713 215.6 434.713H214.5V483.813Z" fill="#8364B4"/>
<path d="M481.5 452.613C480.1 453.113 477 454.613 474.7 456.113C472.4 457.513 470.2 458.713 469.9 458.713C469 458.713 458.2 466.813 457.3 468.113C456.9 468.713 456.5 471.813 456.5 475.013V480.713L460.1 484.213L463.7 487.713H468.3H473L478.2 484.213C481.1 482.313 484.3 480.713 485.4 480.713C486.5 480.713 490.3 482.513 493.7 484.713C497.2 486.913 500.6 488.713 501.3 488.713C501.9 488.713 502.5 489.113 502.5 489.613C502.5 490.113 503.3 490.813 504.3 491.113C507.5 492.413 510.5 494.213 510.5 494.913C510.5 495.413 511.1 495.713 511.9 495.713C512.7 495.713 514 496.313 514.7 496.913C515.4 497.613 517.8 499.113 520 500.213C522.2 501.313 525.4 503.113 527 504.313C528.7 505.513 532.7 507.913 536 509.713C539.3 511.513 542.2 513.313 542.5 513.613C543.3 514.613 546.9 516.713 548.8 517.313C549.7 517.713 550.5 518.313 550.5 518.813C550.5 519.313 551.4 519.713 552.4 519.713C553.5 519.713 555 520.413 555.9 521.213L557.4 522.713H560.9C562.9 522.713 565.3 522.313 566.3 521.813C567.2 521.313 570.1 519.913 572.8 518.713C575.4 517.513 577.5 516.113 577.5 515.613C577.5 515.113 578 514.713 578.5 514.713C580.1 514.713 585.5 509.513 585.5 508.013C585.5 507.313 586 506.713 586.5 506.713C587.6 506.713 587.9 499.013 586.8 498.513C586.3 498.313 585.2 496.613 584.2 494.613L582.3 490.913L578.3 490.413C573.3 489.713 567.4 490.613 565.7 492.413C564.2 493.913 558.9 494.213 558 492.813C557.7 492.213 555.3 490.813 552.7 489.513C550.1 488.213 547.8 487.013 547.5 486.713C546.2 485.413 538.7 480.913 536.7 480.313C535.5 479.913 534.5 479.113 534.5 478.613C534.5 478.113 533.9 477.713 533.1 477.713C532.3 477.713 531 477.113 530.3 476.413C528.3 474.613 525.3 472.713 523.3 472.113C522.3 471.713 521.5 471.113 521.5 470.713C521.5 470.213 520.2 469.613 518.5 469.213C516.9 468.813 515.5 468.213 515.5 467.813C515.5 467.413 513.8 466.213 511.8 465.113C509.7 464.113 507.4 462.613 506.7 461.913C506 461.313 504.7 460.713 503.9 460.713C503.1 460.713 502.5 460.313 502.5 459.813C502.5 459.313 501.5 458.713 500.2 458.313C499 458.013 497 456.913 495.9 455.813C493.9 454.013 487.4 451.613 485 451.813C484.5 451.813 482.9 452.213 481.5 452.613Z" fill="#8364B4"/>
<path d="M107.5 547.113V597.513L113.6 601.613C117 603.913 119.9 605.713 120.1 605.713C120.4 605.713 122.3 606.813 124.5 608.213C126.7 609.613 129.1 610.713 129.9 610.713C130.7 610.713 131.5 611.113 131.7 611.513C132 612.413 140.1 617.313 146 620.213C148.2 621.313 150.2 622.413 150.5 622.713C151.5 623.713 159 628.413 160.6 628.913C161.6 629.313 165.9 631.813 170.4 634.613C174.8 637.413 178.8 639.713 179.1 639.713C179.5 639.713 182.7 641.513 186.2 643.813C189.7 646.013 193.4 647.713 194.3 647.513L196 647.213L196.3 598.313L196.5 549.413L195 547.113C194.2 545.913 192.3 544.313 190.8 543.513C186.4 541.213 176.3 535.613 172.3 533.013C170.2 531.813 168.3 530.713 168 530.713C167.7 530.713 163.5 528.313 158.7 525.413C153.9 522.513 148.4 519.313 146.5 518.313C144.6 517.213 142.8 516.113 142.5 515.813C142.2 515.413 140.3 514.313 138.3 513.213C136.2 512.113 134.5 510.913 134.5 510.513C134.5 510.013 133.8 509.713 132.9 509.713C131.3 509.713 125.5 506.813 124.5 505.613C124.2 505.213 121.1 503.413 117.5 501.613C113.9 499.713 110.9 497.913 110.7 497.413C110.5 497.013 109.7 496.713 108.9 496.713H107.5V547.113Z" fill="#8364B4"/>
<path d="M360.6 532.513C358.7 533.413 356.4 535.513 355.4 537.213L353.6 540.213V559.413L353.5 578.613L350.8 581.213C349.3 582.613 347.5 583.713 346.8 583.713C346.1 583.713 345.2 584.313 344.8 585.013C344.4 585.713 341.2 587.713 337.7 589.513C328.8 594.113 327.6 594.913 324.1 598.213L321 601.113L320.7 646.913L320.4 692.713L321.5 694.813C322.1 695.913 324.1 697.713 325.8 698.713L329 700.713H332.7C334.7 700.713 336.7 700.213 337 699.713C337.3 699.113 338.5 698.713 339.6 698.713C340.7 698.713 342.4 697.913 343.5 696.913C344.5 696.013 347.5 694.113 350.2 692.713C352.8 691.313 355.2 689.913 355.3 689.413C355.5 689.013 356.2 688.713 356.7 688.713C357.9 688.713 367.6 682.813 368.5 681.613C368.8 681.213 370.3 680.513 371.8 680.213C373.3 679.813 374.5 679.113 374.5 678.713C374.5 678.313 375.3 677.713 376.3 677.313C378.2 676.713 381.7 674.613 382.5 673.613C383.4 672.513 390.9 668.713 392.2 668.713C392.9 668.713 393.5 668.213 393.5 667.713C393.5 667.113 394.2 666.713 395 666.713C395.8 666.713 396.5 666.313 396.5 665.713C396.5 665.213 397.6 664.513 399 664.113C400.4 663.813 401.5 663.113 401.5 662.613C401.5 662.113 402.1 661.713 402.8 661.713C403.6 661.713 405.8 660.213 407.7 658.313L411.2 654.913L411.9 630.013L412.6 605.213L411.7 602.613C411.1 601.213 409.2 598.813 407.5 597.413L404.3 594.713H400H395.6L389.3 597.913C385.8 599.713 382.9 601.513 382.7 601.913C382.5 602.413 381.7 602.713 380.9 602.713C380.1 602.713 379.5 603.113 379.5 603.713C379.5 604.213 378.9 604.713 378.2 604.713C377.4 604.713 375.9 605.513 374.8 606.513C373.6 607.513 370.1 609.613 366.9 611.213C363.8 612.913 359.5 615.813 357.4 617.813L353.5 621.313V626.013V630.813L355.2 633.513C356.1 635.013 357.8 637.013 358.9 637.913L361 639.713H365.9H370.8L374.1 637.213C375.9 635.813 377.8 634.713 378.3 634.713C378.9 634.713 379.5 634.313 379.7 633.813C379.9 633.313 381.2 632.513 382.8 632.213L385.5 631.513V635.913V640.413L383.7 642.313C382.1 644.113 380.2 645.213 372 649.613C370.4 650.513 367.2 652.513 365 654.013C362.8 655.513 360.5 656.713 359.8 656.713C359.1 656.713 358.5 657.113 358.5 657.713C358.5 658.213 357.9 658.713 357.1 658.713C356.3 658.713 355.5 659.013 355.3 659.413C355.2 659.913 353.4 660.913 351.5 661.813L348 663.413L346.7 662.113L345.5 660.813V638.413V616.013L348.5 613.413C350.1 611.913 351.9 610.713 352.5 610.713C353.1 610.713 355.3 609.613 357.5 608.213C359.7 606.813 361.7 605.713 362 605.713C362.3 605.713 364.4 604.313 366.7 602.713C368.9 601.013 371.3 599.713 371.9 599.713C373.5 599.713 376.2 596.313 378 592.113L379.5 588.513V565.713V542.913L378.1 539.613C376.6 536.113 374.8 534.213 370.8 531.913C367.8 530.313 364.7 530.413 360.6 532.513Z" fill="#8364B4"/>
<path d="M214.5 609.113V658.713H215.5C216.1 658.713 216.5 659.313 216.5 660.113C216.5 660.913 218.3 662.313 220.5 663.313C222.7 664.313 224.5 665.413 224.5 665.913C224.5 666.313 225.2 666.713 226 666.713C226.8 666.713 227.5 667.113 227.5 667.713C227.5 668.213 228.1 668.713 228.8 668.713C230.1 668.713 237.6 672.513 238.5 673.613C239.3 674.613 242.8 676.713 244.8 677.313C245.7 677.713 246.5 678.313 246.5 678.713C246.5 679.213 247.9 679.813 249.5 680.213C251.2 680.613 252.5 681.213 252.5 681.713C252.5 682.113 253.3 682.713 254.3 683.113C256.2 683.713 259.7 685.813 260.5 686.813C260.8 687.213 263 688.413 265.5 689.513C268 690.613 272.4 693.213 275.3 695.113C278.1 697.113 280.9 698.713 281.5 698.713C282.1 698.713 286.6 701.213 291.6 704.313L300.6 709.913L302 709.313L303.5 708.813V660.513C303.5 633.913 303.2 611.313 302.9 610.113L302.4 608.113L296.7 604.613C293.6 602.713 290.3 600.913 289.4 600.513C288.4 600.113 284.1 597.613 279.6 594.813C275.2 592.013 271.2 589.713 270.9 589.713C270.6 589.713 266.3 587.213 261.4 584.213C256.5 581.213 251.8 578.713 251 578.713C250.2 578.713 249.5 578.213 249.5 577.713C249.5 577.113 249.1 576.713 248.6 576.713C248 576.713 245.7 575.413 243.3 573.913C240.9 572.413 237.2 570.213 235 569.213C232.8 568.113 230.8 566.913 230.5 566.613C230.2 566.213 229 565.713 227.8 565.313C226.5 564.913 225.5 564.113 225.5 563.613C225.5 563.113 224.9 562.713 224.1 562.713C223.3 562.713 222.5 562.213 222.3 561.713C222.1 561.113 220.3 560.413 218.2 560.013L214.5 559.413V609.113Z" fill="#8364B4"/>
</svg>
